<svg width="164" height="22" viewBox="0 0 164 22" fill="none" xmlns="http://www.w3.org/2000/svg">
<g clip-path="url(#clip0_18044_28560)">
<path d="M48.7854 11.0482V21.4608H44.1576V12.1087C44.1576 11.3374 44.0611 10.6625 43.7719 10.2768C43.2898 9.50553 42.5185 9.11988 41.2651 9.11988C39.7225 9.11988 38.662 9.69836 38.1799 10.8553C37.8907 11.4338 37.6978 12.2051 37.6978 13.1693V21.5573H33.1664V5.74539H37.505V8.34856C38.0835 7.57725 38.662 6.99877 39.144 6.61312C40.1082 6.03463 41.2651 5.64898 42.7113 5.64898C44.4468 5.64898 45.9894 6.03463 47.05 6.90236C48.2069 7.67367 48.7854 9.11988 48.7854 11.0482ZM64.6937 6.90236C63.5367 6.03463 62.0905 5.64898 60.3551 5.64898C58.9089 5.64898 57.7519 5.93822 56.7878 6.61312C56.3057 6.99877 55.7272 7.57725 55.1487 8.34856V5.74539H50.8101V21.5573H55.3416V13.1693C55.3416 12.2051 55.5344 11.4338 55.8236 10.8553C56.4021 9.69836 57.4627 9.11988 58.9089 9.11988C60.1623 9.11988 61.03 9.50553 61.4156 10.2768C61.6085 10.7589 61.8013 11.3374 61.8013 12.1087V21.4608H66.4291V11.0482C66.4291 9.11988 65.8507 7.67367 64.6937 6.90236ZM159.276 11.6266C159.372 12.3015 159.469 13.2657 159.372 14.6155H148.574C148.67 16.0617 149.152 17.1222 150.116 17.7971C150.695 18.1828 151.466 18.3756 152.238 18.3756C153.105 18.3756 153.877 18.1828 154.359 17.7007C154.648 17.4115 154.937 17.1222 155.13 16.6402H159.083C158.986 17.5079 158.504 18.3756 157.637 19.3397C156.287 20.786 154.455 21.5573 152.045 21.5573C150.02 21.5573 148.285 20.9788 146.838 19.7254C145.296 18.472 144.524 16.5437 144.621 13.7477C144.621 11.1446 145.296 9.21629 146.646 7.77008C147.995 6.42029 149.827 5.74539 151.948 5.74539C153.202 5.74539 154.359 5.93822 155.419 6.42029C156.48 6.90236 157.347 7.57725 158.022 8.63781C158.697 9.40912 159.083 10.4697 159.276 11.6266ZM155.419 12.0123C155.323 10.9517 155.034 10.1804 154.359 9.69836C153.78 9.11987 153.009 8.92705 152.045 8.92705C151.081 8.92705 150.309 9.21629 149.731 9.79477C149.152 10.3733 148.863 11.1446 148.67 12.1087L155.419 12.0123ZM164 4.10635C164 5.93822 162.554 7.38443 160.722 7.38443C158.89 7.38443 157.444 5.93822 157.444 4.10635C157.444 2.27449 158.89 0.828283 160.722 0.828283C162.554 0.828283 164 2.27449 164 4.10635ZM163.422 4.10635C163.422 2.66015 162.265 1.40677 160.722 1.40677C159.276 1.40677 158.022 2.66015 158.022 4.10635C158.022 5.55256 159.179 6.80594 160.722 6.80594C162.168 6.80594 163.422 5.55256 163.422 4.10635ZM7.71311 8.92705C8.67725 8.92705 9.44856 9.21629 9.93063 9.79477C10.2199 10.2768 10.2199 10.3733 10.4127 10.7589H14.7513C14.4621 8.63781 13.7872 7.67367 12.4374 6.80594C11.184 5.93822 9.54497 5.55256 7.52028 5.55256C5.20635 5.55256 3.27807 6.22746 2.02469 7.67367C0.674896 9.11988 0 11.0482 0 13.6513C0 15.9653 0.578483 17.7971 1.83186 19.1469C3.08524 20.5931 4.91711 21.268 7.52028 21.268C10.1235 21.268 12.0517 20.4003 13.3051 18.6648C14.0764 17.6043 14.6549 16.4473 14.7513 15.2904H10.5091C10.4127 16.0617 10.1235 16.7366 9.7378 17.2186C9.35214 17.7007 8.67725 17.99 7.61669 17.99C6.2669 17.99 5.30276 17.4115 4.82069 16.1581C4.53145 15.4832 4.43504 14.6155 4.43504 13.5549C4.43504 12.3979 4.53145 11.5302 4.82069 10.7589C5.30276 9.60194 6.2669 8.92705 7.71311 8.92705ZM31.1417 10.2768V21.3644H26.7066V19.2433C26.1282 19.8218 25.5497 20.2075 24.7784 20.5931C23.8142 21.0752 22.7537 21.3644 21.5967 21.3644C20.0541 21.3644 18.8007 20.9788 17.8366 20.2075C16.8724 19.4362 16.3904 18.3756 16.3904 16.9294C16.3904 15.0975 17.1617 13.7477 18.8007 12.9764C19.6684 12.4944 21.0182 12.2051 22.6573 12.0123L24.1999 11.8195C24.9712 11.723 25.6461 11.6266 25.9353 11.4338C26.6102 11.241 26.8995 10.8553 26.8995 10.2768C26.8995 9.69836 26.6102 9.21629 26.1282 9.02346C25.6461 8.83063 24.9712 8.63781 24.0071 8.63781C22.9465 8.63781 22.1752 8.83063 21.7895 9.3127C21.5003 9.60194 21.3075 10.084 21.2111 10.6625H16.9688C17.0653 9.3127 17.4509 8.25215 18.2222 7.48084C19.3792 6.13105 21.4039 5.55256 24.1999 5.55256C26.0317 5.55256 27.6708 5.8418 29.117 6.5167C30.4668 7.1916 31.1417 8.44498 31.1417 10.2768ZM26.4174 13.6513C26.1282 13.8442 25.5497 13.9406 25.2604 14.037C24.9712 14.1334 24.5855 14.2298 24.1035 14.3262L23.1393 14.5191C22.1752 14.7119 21.5003 14.8083 21.1146 15.0975C20.4397 15.4832 20.0541 15.9653 20.0541 16.7366C20.0541 17.4115 20.2469 17.8935 20.729 18.1828C21.1146 18.472 21.6931 18.6648 22.2716 18.6648C23.2357 18.6648 24.1035 18.3756 24.8748 17.8935C25.6461 17.4115 26.4174 16.5437 26.4174 15.1939V13.6513ZM82.8195 7.96291C84.2657 9.50553 84.9406 11.3374 84.9406 13.5549C84.9406 15.7724 84.2657 17.6043 82.8195 19.1469C81.3733 20.6895 79.2522 21.4608 76.4562 21.4608C73.5638 21.4608 71.4427 20.6895 70.0929 19.1469C68.6467 17.6043 67.9718 15.7724 67.9718 13.5549C67.9718 11.4338 68.6467 9.60194 70.0929 7.96291C71.4427 6.42029 73.6602 5.64898 76.4562 5.64898C79.2522 5.64898 81.3733 6.42029 82.8195 7.96291ZM80.3128 13.5549C80.3128 12.1087 79.9271 10.9517 79.2522 10.084C78.5773 9.3127 77.6132 8.92705 76.3598 8.92705C75.1064 8.92705 74.1423 9.3127 73.4674 10.084C72.7925 10.8553 72.4068 12.0123 72.4068 13.5549C72.4068 15.0011 72.7925 16.1581 73.4674 17.0258C74.1423 17.7971 75.1064 18.2792 76.3598 18.2792C77.6132 18.2792 78.5773 17.8935 79.2522 17.0258C80.0235 16.1581 80.3128 15.0011 80.3128 13.5549ZM136.715 10.2768V21.3644H132.28V19.2433C131.701 19.8218 131.123 20.2075 130.352 20.5931C129.387 21.0752 128.327 21.3644 127.17 21.3644C125.627 21.3644 124.374 20.9788 123.41 20.2075C122.446 19.4362 121.964 18.3756 121.964 16.9294C121.964 15.0975 122.735 13.7477 124.374 12.9764C125.242 12.4944 126.591 12.2051 128.23 12.0123L129.773 11.8195C130.544 11.723 131.219 11.6266 131.509 11.4338C132.183 11.241 132.473 10.8553 132.473 10.2768C132.473 9.69836 132.183 9.21629 131.701 9.02346C131.219 8.83063 130.544 8.63781 129.58 8.63781C128.52 8.63781 127.748 8.83063 127.363 9.3127C127.073 9.60194 126.881 10.084 126.784 10.6625H122.542C122.638 9.3127 123.024 8.25215 123.795 7.48084C124.952 6.13105 126.977 5.55256 129.773 5.55256C131.605 5.55256 133.244 5.8418 134.69 6.5167C136.04 7.1916 136.715 8.44498 136.715 10.2768ZM131.991 13.6513C131.701 13.8442 131.123 13.9406 130.834 14.037C130.544 14.1334 130.159 14.2298 129.677 14.3262L128.713 14.5191C127.748 14.7119 127.073 14.8083 126.688 15.0975C126.013 15.4832 125.627 15.9653 125.627 16.7366C125.627 17.4115 125.82 17.8935 126.302 18.1828C126.688 18.472 127.266 18.6648 127.845 18.6648C128.809 18.6648 129.677 18.3756 130.448 17.8935C131.219 17.4115 131.991 16.5437 131.991 15.1939V13.6513ZM138.74 0.539041V21.4608H143.175V0.539041H138.74ZM161.397 4.10635C161.782 4.10635 162.072 4.20277 162.072 4.58842V5.55256H161.397V4.78125C161.397 4.49201 161.3 4.3956 161.011 4.3956H160.24V5.55256H159.565V2.46732H161.011C161.686 2.46732 162.072 2.85297 162.072 3.33504C162.072 3.81711 161.782 4.00994 161.397 4.10635ZM161.397 3.43146C161.397 3.14222 161.204 3.0458 160.818 3.0458H160.24V3.91353H160.818C161.204 3.91353 161.397 3.7207 161.397 3.43146ZM115.986 0.442627H120.421V21.3644H115.986V19.2433C115.407 19.9182 114.829 20.4003 114.154 20.786C113.286 21.1716 112.033 21.3644 110.78 21.3644C108.755 21.3644 107.019 20.5931 105.67 19.1469C104.32 17.7007 103.645 15.8688 103.645 13.5549C103.645 10.9517 104.513 9.21629 105.862 7.67367C107.212 6.13105 109.237 5.55256 111.165 5.55256C112.226 5.55256 113.383 5.74539 114.25 6.13105C114.925 6.42029 115.697 7.09518 116.179 7.57725V0.442627H115.986ZM115.311 13.4585C115.311 11.5302 114.733 10.1804 113.672 9.40912C112.997 8.92705 112.226 8.63781 111.358 8.63781C110.008 8.63781 109.044 9.11988 108.466 9.9876C107.887 10.8553 107.501 12.0123 107.501 13.2657C107.501 14.7119 107.791 15.8688 108.466 16.6402C109.14 17.5079 110.008 17.8935 111.358 17.8935C112.611 17.8935 113.576 17.5079 114.25 16.6402C115.022 15.8688 115.311 14.8083 115.311 13.4585ZM100.27 6.90236C99.1135 6.03463 97.6672 5.64898 95.9318 5.64898C94.4856 5.64898 93.3286 5.93822 92.4609 6.61312C91.9788 6.99877 91.4003 7.57725 90.8219 8.34856V5.74539H86.4832V21.5573H91.0147V13.1693C91.0147 12.2051 91.2075 11.4338 91.4968 10.8553C92.0752 9.69836 93.1358 9.11988 94.582 9.11988C95.8354 9.11988 96.7031 9.50553 97.0888 10.2768C97.2816 10.7589 97.4744 11.3374 97.4744 12.1087V21.4608H102.102V11.0482C102.006 9.11988 101.427 7.67367 100.27 6.90236Z" fill="black"/>
</g>
<defs>
<clipPath id="clip0_18044_28560">
<rect width="164" height="22" fill="white"/>
</clipPath>
</defs>
</svg>
