<?xml version="1.0" encoding="utf-8"?>
<!-- Generator: Adobe Illustrator 26.2.1, SVG Export Plug-In . SVG Version: 6.00 Build 0)  -->
<svg version="1.1" id="Ebene_1" xmlns="http://www.w3.org/2000/svg" xmlns:xlink="http://www.w3.org/1999/xlink" x="0px" y="0px"
	 viewBox="0 0 476.2 117.8" style="enable-background:new 0 0 476.2 117.8;" xml:space="preserve">
<style type="text/css">
	.Grün_x0020_bogenförmig{fill:url(#SVGID_1_);stroke:#FFFFFF;stroke-width:0.25;stroke-miterlimit:1;}
</style>
<linearGradient id="SVGID_1_" gradientUnits="userSpaceOnUse" x1="-183.5249" y1="355.895" x2="-182.8178" y2="355.1879">
	<stop  offset="0" style="stop-color:#1BA138"/>
	<stop  offset="0.9831" style="stop-color:#23391D"/>
</linearGradient>
<g>
	<path d="M374.2,34.8l-71.2,0c-0.5,0-1,0.4-1.2,0.9l-12.7,47.2c-0.1,0.5,0.2,0.9,0.7,0.9l72.6,0c13.3,0.1,15.2-6.9,17-13.6l1.7-6.3
		c1.1-3.8-0.8-5.6-2.3-6.7c-0.7-0.4-0.8-1.2,0-1.5c1.7-0.8,2.7-1.4,3.4-4.3l2.3-8.6C385.8,38.2,380.6,34.8,374.2,34.8z M359.8,65.1
		l-1.6,5.9c-0.8,3.1-3.5,4.5-6.3,4.5l-39.5,0.1l3.5-13.2h41.4C358.6,62.3,360.2,63.5,359.8,65.1z M362.4,45.6l-1.5,5.4
		c-0.8,2.7-3.2,3.2-5.5,3.2h-37.3l3.3-11.9h38.3C362.6,42.3,363,43,362.4,45.6z"/>
	<path d="M85.9,42c4.1,0,8.3-3.2,9.4-7.1l8-27.8C104.5,3.2,102.1,0,98,0H68.1c-4.1,0-8.3,3.2-9.4,7.1l-6.8,23.7
		c-1.1,3.9-5.4,7.1-9.4,7.1H17.7c-4.1,0-8.3,3.2-9.4,7.1l-8,27.8c-1.1,3.9,1.3,7.1,5.3,7.1h24c4.1,0,6.5,3.2,5.3,7.1l-6.8,23.8
		c-1.1,3.9,1.3,7.1,5.3,7.1h29.9c4.1,0,8.3-3.2,9.4-7.1l8-27.8c1.1-3.9-1.3-7.1-5.3-7.1h-24c-4.1,0-6.5-3.2-5.3-7.1l5.6-19.6
		c1.1-3.9,5.4-7.1,9.4-7.1H85.9z"/>
	<path d="M198,34.8l-70.3,0c-3.9,0-7.9,3.1-8.9,6.8l-7.8,29.3c-1.9,7.2,2.9,13,10.7,13l65.2,0c0.5,0,1-0.4,1.2-0.9l1.7-6.5
		c0.1-0.5-0.2-0.9-0.7-0.9h-46.4c-5.6-0.1-8.5-4.3-6.7-9.5l5.5-18.9c1.4-4.5,3.2-5.2,7.7-5.2H196c0.5,0,1-0.4,1.2-0.9l1.5-5.5
		C198.8,35.2,198.5,34.8,198,34.8z"/>
	<path d="M294.2,34.8h-22c-0.5,0-1,0.4-1.2,0.9l-7.9,29.9c-2.1,8.1-5.7,10-12,10h-23.9c-7.6,0-8.1-4.3-6.7-10l8-29.9
		c0.1-0.5-0.2-0.9-0.7-0.9H206c-0.5,0-1,0.4-1.2,0.9l-9.3,34.5c-2,7.5,2.7,13.7,10.5,13.7l61.8,0c7.8,0,15.8-6.2,17.8-13.7l9.1-34.4
		C295,35.2,294.7,34.8,294.2,34.8z"/>
	<path d="M475.5,34.8l-75,0c-3.9,0-7.9,3-8.9,6.8l-8.4,31.9c-1.1,5,4.2,10.4,11.2,10.4h67.9c0.5,0,1-0.4,1.2-0.9l1.7-6.5
		c0.1-0.5-0.2-0.9-0.7-0.9l-51.2,0c-7.4,0-6.3-4.4-4.9-9.5l1-3.9c0.1-0.3,0.3-0.4,0.6-0.4h57.6c0.5,0,1-0.4,1.2-0.9l1.6-5.9
		c0.1-0.5-0.2-0.9-0.7-0.9c0,0-57.1,0-57.3,0c-0.4,0-0.6-0.3-0.5-0.6c0.1-0.3,1.6-6.2,1.6-6.2c1.2-4.6,3.1-5.2,9.1-5.2h51
		c0.5,0,1-0.4,1.2-0.9l1.5-5.6C476.3,35.2,476,34.8,475.5,34.8z"/>
</g>
</svg>
